<svg width="119" height="21" viewBox="0 0 119 21" fill="none" xmlns="http://www.w3.org/2000/svg">
<path fill-rule="evenodd" clip-rule="evenodd" d="M82.5261 8.24926C82.5261 3.46569 79.1044 0.0386658 74.4025 0.0386658C69.7238 0.0386658 66.3021 3.46569 66.3021 8.24926C66.3021 13.0328 69.7238 16.4598 74.4025 16.4598C79.1044 16.4598 82.5261 13.0328 82.5261 8.24926ZM74.4025 13.4612C71.5394 13.4612 69.7005 11.2003 69.7005 8.24926C69.7005 5.27441 71.5394 3.03732 74.4025 3.03732C77.2655 3.03732 79.1277 5.27441 79.1277 8.24926C79.1277 11.2003 77.2655 13.4612 74.4025 13.4612ZM118.987 13.1498V16.1247H109.118V0.250892H112.423V13.1498H118.987ZM70.1475 16.0301C69.3701 15.6217 68.8376 15.0608 68.8376 15.0608L66.6957 18.3309L69.4131 20.0288L71.5492 16.6104C71.5492 16.6104 70.9249 16.4384 70.1475 16.0301ZM107.01 16.1247V13.1498H99.329V9.55623H106.847V6.58138H99.329V3.22574H107.01V0.250892H96.0237V16.1247H107.01ZM89.758 3.22574V16.1247H86.4294V3.22574H81.8903V0.250892H94.2737V3.22574H89.758ZM63.8486 0.250892V16.1247H60.52V9.46103H53.1878V16.1247H49.8824V0.250892H53.1878V6.48618H60.52V0.250892H63.8486Z" fill="#0077FF"/>
<path fill-rule="evenodd" clip-rule="evenodd" d="M3.30533 9.55622V16.1247H0V0.250885H10.9867V3.22574H3.30533V6.58137H10.8238V9.55622H3.30533ZM15.5681 16.1247V0.250885H12.2628V16.1247H15.5681ZM31.3552 0.250885V16.1247H28.1663L20.7642 5.77221V16.1247H17.4589V0.250885H20.8573L28.0499 10.2226V0.250885H31.3552ZM47.8247 8.19969C47.8247 12.9833 44.4495 16.1247 39.5846 16.1247H33.4628V0.250885H39.5846C44.4495 0.250885 47.8247 3.41613 47.8247 8.19969ZM36.7681 13.1498H39.5846C42.6572 13.1498 44.4495 10.889 44.4495 8.19969C44.4495 5.39143 42.7736 3.22574 39.5846 3.22574H36.7681V13.1498Z" fill="#2A333D"/>
</svg>
